<svg width="118" height="39" fill="none" xmlns="http://www.w3.org/2000/svg"><path d="M28.563 35.147c.378 0 .378.009.378.261v1.296c0 .837-.045.927-.459.981l-.198.027c-.072.054-.072.261 0 .315a31.785 31.785 0 0 1 2.628 0c.072-.054.072-.261 0-.315l-.216-.036c-.414-.072-.468-.135-.468-.972v-3.348c0-.837.054-.918.468-.981l.18-.027c.072-.054.072-.261 0-.315-.414.018-.828.027-1.269.027-.432 0-.873-.009-1.368-.027-.072.054-.072.261 0 .315l.243.036c.414.063.459.135.459.972V34.4c0 .261 0 .27-.378.27h-1.872c-.369 0-.378-.009-.378-.27v-1.044c0-.837.054-.927.441-.981l.189-.027c.072-.054.072-.261 0-.315-.396.018-.846.027-1.251.027-.432 0-.9-.009-1.341-.027-.072.054-.072.261 0 .315l.216.027c.414.054.459.144.459.981v3.348c0 .837-.045.927-.459.981l-.216.027c-.072.054-.072.261 0 .315a34.355 34.355 0 0 1 2.709 0c.072-.054.072-.261 0-.315l-.288-.036c-.405-.054-.459-.135-.459-.972v-1.296c0-.252.009-.261.378-.261h1.872Zm11.661-3.231c-1.881 0-3.213 1.377-3.213 3.159 0 1.881 1.314 3.069 3.123 3.069 1.935 0 3.249-1.179 3.249-3.141 0-1.827-1.287-3.087-3.159-3.087Zm1.719 3.204c0 1.458-.459 2.61-1.638 2.61-1.467 0-1.854-1.764-1.854-2.862 0-1.503.594-2.538 1.701-2.538 1.116 0 1.791 1.251 1.791 2.79Zm9.223 1.584c0 .837-.054.918-.459.963l-.405.045c-.072.054-.072.261 0 .315.63-.018 1.098-.027 1.53-.027.405 0 .855.009 1.44.027.063-.054.063-.261 0-.315l-.36-.045c-.405-.054-.459-.126-.459-.963v-3.969c0-.234.027-.261.243-.261h.54c.675 0 .801.423.954.999.045.072.288.054.333-.027-.018-.513.045-1.242.135-1.548a.192.192 0 0 0-.135-.063.225.225 0 0 0-.117.027c-.08.189-.216.198-.81.198h-3.348c-.684 0-.71-.036-.756-.189a.207.207 0 0 0-.126-.036.215.215 0 0 0-.126.045c-.063.351-.108.909-.297 1.53.054.117.225.135.333.081.27-.657.46-1.017 1.116-1.017h.558c.216 0 .216.045.216.261v3.969Zm11.22-3.879c0-.333 0-.351.296-.351h.72c.441 0 .711.108.882.279.117.126.243.396.342.711.09.081.297.063.333-.036-.045-.603-.108-1.251-.117-1.395-.117.018-.63.027-1.206.027h-1.908c-.432 0-.873-.009-1.296-.027-.09.054-.099.261-.018.315l.225.045c.405.081.46.135.46.954v3.357c0 .828-.055.882-.46.945l-.423.063c-.072.045-.072.261 0 .315A57.266 57.266 0 0 1 61.764 38h1.17c.738 0 1.602.009 2.08.027.125-.243.341-.972.377-1.44-.036-.108-.26-.144-.333-.045-.495 1.017-.8 1.044-1.584 1.044-.657 0-.828-.072-.945-.234-.108-.153-.144-.441-.144-.855v-1.071c0-.27.01-.279.252-.279h.621c.468 0 .576.072.666.504l.045.225c.063.081.288.072.333-.009a15.53 15.53 0 0 1-.027-.954c0-.342.01-.666.027-.954-.045-.081-.27-.081-.333-.009l-.045.225c-.09.432-.198.495-.666.495h-.62c-.244 0-.253-.018-.253-.27v-1.575Zm10.734.531c0-.837.054-.909.459-.972l.234-.036c.072-.054.072-.261 0-.315a33.556 33.556 0 0 1-2.682 0c-.108.054-.108.261-.018.315l.261.036c.405.054.459.135.459.972v3.348c0 .837-.054.909-.459.963l-.342.045c-.072.054-.054.261.027.315A43.924 43.924 0 0 1 72.481 38h1.206c.738 0 1.602.009 2.079.027.126-.243.342-.99.387-1.458-.063-.108-.27-.144-.342-.054-.531 1.044-.783 1.071-1.602 1.071-.657 0-.819-.072-.936-.225-.117-.144-.153-.432-.153-.855v-3.15Zm12.645 2.961c0-.99-.711-1.512-1.27-1.809l-.593-.315c-.45-.234-.82-.612-.82-1.026 0-.45.325-.837.919-.837.648 0 1.035.657 1.188 1.116.08.09.306.081.35-.027 0-.603-.09-1.089-.161-1.287a2.132 2.132 0 0 1-.306-.072 3.65 3.65 0 0 0-1.026-.144c-1.305 0-2.097.702-2.088 1.719 0 .891.71 1.431 1.359 1.755.54.27 1.224.702 1.224 1.431 0 .45-.306.909-.972.909-.765 0-1.368-.828-1.548-1.413-.072-.099-.28-.09-.342.027 0 .612.117 1.26.288 1.458.189.108.702.342 1.53.342 1.359 0 2.268-.72 2.268-1.827ZM6.425 8.1c0-2.325.15-2.525 1.275-2.7l.65-.1c.2-.15.2-.725 0-.875a93.212 93.212 0 0 1-7.45 0c-.3.15-.3.725-.05.875l.725.1c1.125.15 1.275.375 1.275 2.7v9.3c0 2.325-.15 2.525-1.275 2.675l-.95.125c-.2.15-.15.725.075.875C2.25 21.025 3.5 21 4.65 21H8c2.05 0 4.45.025 5.775.075.35-.675.95-2.75 1.075-4.05-.175-.3-.75-.4-.95-.15-1.475 2.9-2.175 2.975-4.45 2.975-1.825 0-2.275-.2-2.6-.625-.325-.4-.425-1.2-.425-2.375V8.1Zm13.77 6.25c0 2.725.55 4.575 1.85 5.65 1.35 1.1 3.05 1.4 4.95 1.4 2.026 0 3.85-.625 4.95-1.8 1.376-1.525 1.6-3.675 1.6-6.025v-2.8c0-2.025.1-3.925.376-4.575.225-.525.7-.675 1.35-.825l.45-.1c.2-.2.15-.7 0-.85-.95.05-1.875.075-2.8.075-1.025 0-2-.025-3.35-.075-.15.15-.2.65 0 .85l.675.125c.675.125 1.225.275 1.45.8.275.65.375 2.55.375 4.575V13.8c0 3.425-.975 6.225-4.175 6.225-3.8 0-4.125-3.225-4.125-6.15V8.1c0-2.325.15-2.525 1.275-2.725l.6-.1c.2-.15.2-.7 0-.85a87.976 87.976 0 0 1-7.3 0c-.275.15-.25.7-.05.85l.625.125c1.125.225 1.275.375 1.275 2.7v6.25Zm19.232 5.9c-.225.15-.15.7.1.825.75-.05 1.8-.075 2.625-.075 1.05 0 2.175.025 3.275.075.275-.1.3-.7.075-.875l-.65-.075c-.525-.05-.8-.175-.8-.325 0-.15.05-.325.225-.675.825-1.575 2-3.475 2.975-4.9.375.475 2.275 3.4 2.65 4.075.625 1.05.725 1.275.725 1.475 0 .15-.3.275-.925.35l-.675.075c-.25.125-.15.775.075.875 1.35-.05 2.475-.075 4.2-.075 2.025 0 2.8.025 3.9.075.25-.175.25-.7.075-.875l-.775-.1c-.95-.125-1.575-.475-2.45-1.8-.9-1.35-2.125-3.225-4-6.125-.25-.375-.35-.65-.35-.775s.25-.5.5-.85c1.175-1.6 2.275-3.25 3.475-4.475.45-.45.9-.55 1.425-.625l1.05-.15c.175-.225.15-.75-.1-.875-.8.05-1.825.075-3.025.075-1.175 0-1.975-.025-2.75-.075-.275.125-.275.7-.075.875l1 .175c.325.05.5.175.5.25 0 .125 0 .3-.275.75-.775 1.325-1.6 2.55-2.525 3.95-.775-1.125-1.675-2.5-2.35-3.675-.3-.525-.4-.75-.4-.975 0-.175.45-.3.85-.375l.55-.1c.175-.2.175-.75-.1-.875-.775.05-1.775.075-3.8.075-1.525 0-3.1-.025-3.9-.075-.25.15-.25.675-.025.875l.425.075c1.125.2 1.65.525 2.225 1.35 1.175 1.675 2.75 4.15 3.575 5.375.325.45.45.775.45.875 0 .15-.125.45-.35.775-1.075 1.6-2.425 3.55-3.15 4.5-.825 1.125-1.4 1.725-2.9 1.925l-.575.075Zm23.4-5.9c0 2.725.55 4.575 1.85 5.65 1.35 1.1 3.05 1.4 4.95 1.4 2.026 0 3.85-.625 4.95-1.8 1.376-1.525 1.6-3.675 1.6-6.025v-2.8c0-2.025.1-3.925.375-4.575.225-.525.7-.675 1.35-.825l.45-.1c.2-.2.15-.7 0-.85-.95.05-1.874.075-2.8.075-1.025 0-2-.025-3.35-.075-.15.15-.2.65 0 .85l.675.125c.675.125 1.226.275 1.45.8.276.65.376 2.55.376 4.575V13.8c0 3.425-.975 6.225-4.175 6.225-3.8 0-4.126-3.225-4.126-6.15V8.1c0-2.325.15-2.525 1.275-2.725l.6-.1c.2-.15.2-.7 0-.85a87.976 87.976 0 0 1-7.3 0c-.274.15-.25.7-.05.85l.626.125c1.125.225 1.275.375 1.275 2.7v6.25Zm22.381 3.05c0 2.3-.15 2.475-1.275 2.675l-.675.125c-.2.125-.2.725 0 .875 1.3-.05 2.4-.075 3.65-.075 1.2 0 2.35.025 3.675.075.175-.15.175-.75 0-.875l-.675-.125c-1.125-.2-1.275-.375-1.275-2.675v-3.075c0-.5.05-.55.925-.55.625 0 1.025.2 1.325.875.575 1.325 1.15 2.55 1.95 3.875 1.1 1.8 2.55 2.625 4.85 2.625.775 0 1.575-.05 1.975-.225.125-.15.125-.525-.1-.65-.375-.025-1.025-.175-1.675-.7-1.2-1.025-2.225-2.9-3.875-6.25-.125-.275-.125-.425.125-.55 1.15-.575 2.65-1.525 2.65-3.75 0-1.6-.75-2.85-2.2-3.7-.95-.575-2.775-.9-4.9-.9-2.375 0-4.325.1-6.2.225-.3.125-.3.75-.05.875l.675.1c1.05.15 1.1.425 1.1 2.925v8.85Zm3.425-10.55c0-1.2.05-1.275 1.075-1.275 1.95 0 3.275 1.45 3.275 3.7 0 1.475-.475 2.275-.9 2.7-.475.475-1 .7-1.9.7-1.475 0-1.55-.075-1.55-.95V6.85Zm22.3 8.8c0-1.425.175-2.05.825-3.225l1.575-2.85c1.2-2.175 1.8-3.075 2.175-3.55.275-.35.85-.525 1.3-.6l.65-.125c.2-.175.2-.775-.1-.875-.725.05-1.5.075-2.45.075-.9 0-1.8-.025-2.8-.075-.25.125-.225.75-.025.875l.475.1c.6.1 1 .25 1 .4 0 .3-.3 1.05-1.2 2.825-.65 1.275-1.425 2.9-2.15 4.125-.3-.625-.875-1.775-1.25-2.6l-1.175-2.675c-.525-1.175-.65-1.55-.65-1.75 0-.025.15-.125.6-.225l.85-.2c.225-.2.175-.775-.05-.875-.85.05-2.125.075-3.65.075-1.475 0-2.4-.025-3.525-.075-.3.075-.325.675-.1.875l.85.15c.875.15 1.1.55 1.6 1.575l2.975 6.15c.65 1.325.675 1.725.675 2.975v1.25c0 2.325-.15 2.5-1.275 2.675l-.85.125c-.2.15-.2.725 0 .875 1.475-.05 2.725-.075 3.925-.075 1.2 0 2.425.025 4.05.075.175-.15.175-.725 0-.875l-1-.125c-1.125-.15-1.275-.35-1.275-2.675v-1.75Z" fill="#fff"/></svg>