<svg width="189" height="60" fill="none" xmlns="http://www.w3.org/2000/svg"><path d="M46.605 49.245c.63 0 .63.015.63.435v2.16c0 1.395-.075 1.545-.765 1.635l-.33.045c-.12.09-.12.435 0 .525a52.976 52.976 0 0 1 4.38 0c.12-.09.12-.435 0-.525l-.36-.06c-.69-.12-.78-.225-.78-1.62v-5.58c0-1.395.09-1.53.78-1.635l.3-.045c.12-.09.12-.435 0-.525-.69.03-1.38.045-2.115.045-.72 0-1.455-.015-2.28-.045-.12.09-.12.435 0 .525l.405.06c.69.105.765.225.765 1.62V48c0 .435 0 .45-.63.45h-3.12c-.615 0-.63-.015-.63-.45v-1.74c0-1.395.09-1.545.735-1.635l.315-.045c.12-.09.12-.435 0-.525-.66.03-1.41.045-2.085.045-.72 0-1.5-.015-2.235-.045-.12.09-.12.435 0 .525l.36.045c.69.09.765.24.765 1.635v5.58c0 1.395-.075 1.545-.765 1.635l-.36.045c-.12.09-.12.435 0 .525a57.258 57.258 0 0 1 4.515 0c.12-.09.12-.435 0-.525l-.48-.06c-.675-.09-.765-.225-.765-1.62v-2.16c0-.42.015-.435.63-.435h3.12ZM66.04 43.86c-3.135 0-5.355 2.295-5.355 5.265 0 3.135 2.19 5.115 5.205 5.115 3.225 0 5.415-1.965 5.415-5.235 0-3.045-2.145-5.145-5.265-5.145Zm2.865 5.34c0 2.43-.765 4.35-2.73 4.35-2.445 0-3.09-2.94-3.09-4.77 0-2.505.99-4.23 2.835-4.23 1.86 0 2.985 2.085 2.985 4.65Zm15.372 2.64c0 1.395-.09 1.53-.765 1.605l-.675.075c-.12.09-.12.435 0 .525 1.05-.03 1.83-.045 2.55-.045.675 0 1.425.015 2.4.045.105-.09.105-.435 0-.525l-.6-.075c-.675-.09-.765-.21-.765-1.605v-6.615c0-.39.045-.435.405-.435h.9c1.125 0 1.335.705 1.59 1.665.075.12.48.09.555-.045-.03-.855.075-2.07.225-2.58a.32.32 0 0 0-.225-.105.375.375 0 0 0-.195.045c-.135.315-.36.33-1.35.33h-5.58c-1.14 0-1.185-.06-1.26-.315a.344.344 0 0 0-.21-.06c-.075 0-.15.03-.21.075-.105.585-.18 1.515-.495 2.55.09.195.375.225.555.135.45-1.095.765-1.695 1.86-1.695h.93c.36 0 .36.075.36.435v6.615Zm18.698-6.465c0-.555 0-.585.495-.585h1.2c.735 0 1.185.18 1.47.465.195.21.405.66.57 1.185.15.135.495.105.555-.06-.075-1.005-.18-2.085-.195-2.325-.195.03-1.05.045-2.01.045h-3.18c-.72 0-1.455-.015-2.16-.045-.15.09-.165.435-.03.525l.375.075c.675.135.765.225.765 1.59v5.595c0 1.38-.09 1.47-.765 1.575l-.705.105c-.12.075-.12.435 0 .525a95.43 95.43 0 0 1 2.58-.045h1.95c1.23 0 2.67.015 3.465.045.21-.405.57-1.62.63-2.4-.06-.18-.435-.24-.555-.075-.825 1.695-1.335 1.74-2.64 1.74-1.095 0-1.38-.12-1.575-.39-.18-.255-.24-.735-.24-1.425V49.71c0-.45.015-.465.42-.465h1.035c.78 0 .96.12 1.11.84l.075.375c.105.135.48.12.555-.015-.03-.48-.045-1.02-.045-1.59 0-.57.015-1.11.045-1.59-.075-.135-.45-.135-.555-.015l-.075.375c-.15.72-.33.825-1.11.825h-1.035c-.405 0-.42-.03-.42-.45v-2.625Zm17.892.885c0-1.395.09-1.515.765-1.62l.39-.06c.12-.09.12-.435 0-.525a55.927 55.927 0 0 1-4.47 0c-.18.09-.18.435-.03.525l.435.06c.675.09.765.225.765 1.62v5.58c0 1.395-.09 1.515-.765 1.605l-.57.075c-.12.09-.09.435.045.525.93-.03 1.68-.045 2.37-.045h2.01c1.23 0 2.67.015 3.465.045.21-.405.57-1.65.645-2.43-.105-.18-.45-.24-.57-.09-.885 1.74-1.305 1.785-2.67 1.785-1.095 0-1.365-.12-1.56-.375-.195-.24-.255-.72-.255-1.425v-5.25Zm21.074 4.935c0-1.65-1.185-2.52-2.115-3.015l-.99-.525c-.75-.39-1.365-1.02-1.365-1.71 0-.75.54-1.395 1.53-1.395 1.08 0 1.725 1.095 1.98 1.86.135.15.51.135.585-.045 0-1.005-.15-1.815-.27-2.145-.18-.03-.315-.06-.51-.12-.6-.18-1.215-.24-1.71-.24-2.175 0-3.495 1.17-3.48 2.865 0 1.485 1.185 2.385 2.265 2.925.9.45 2.04 1.17 2.04 2.385 0 .75-.51 1.515-1.62 1.515-1.275 0-2.28-1.38-2.58-2.355-.12-.165-.465-.15-.57.045 0 1.02.195 2.1.48 2.43.315.18 1.17.57 2.55.57 2.265 0 3.78-1.2 3.78-3.045ZM10.28 12.36c0-3.72.24-4.04 2.04-4.32l1.04-.16c.32-.24.32-1.16 0-1.4-2 .08-4 .12-5.92.12s-3.92-.04-6-.12c-.48.24-.48 1.16-.08 1.4l1.16.16c1.8.24 2.04.6 2.04 4.32v14.88c0 3.72-.24 4.04-2.04 4.28l-1.52.2c-.32.24-.24 1.16.12 1.4C3.6 33.04 5.6 33 7.44 33h5.36c3.28 0 7.12.04 9.24.12.56-1.08 1.52-4.4 1.72-6.48-.28-.48-1.2-.64-1.52-.24-2.36 4.64-3.48 4.76-7.12 4.76-2.92 0-3.64-.32-4.16-1-.52-.64-.68-1.92-.68-3.8v-14Zm22.033 10c0 4.36.88 7.32 2.96 9.04 2.16 1.76 4.88 2.24 7.92 2.24 3.24 0 6.16-1 7.92-2.88 2.2-2.44 2.56-5.88 2.56-9.64v-4.48c0-3.24.16-6.28.6-7.32.36-.84 1.12-1.08 2.16-1.32l.72-.16c.32-.32.24-1.12 0-1.36-1.52.08-3 .12-4.48.12-1.64 0-3.2-.04-5.36-.12-.24.24-.32 1.04 0 1.36l1.08.2c1.08.2 1.96.44 2.32 1.28.44 1.04.6 4.08.6 7.32v4.84c0 5.48-1.56 9.96-6.68 9.96-6.08 0-6.6-5.16-6.6-9.84v-9.24c0-3.72.24-4.04 2.04-4.36l.96-.16c.32-.24.32-1.12 0-1.36a140.762 140.762 0 0 1-11.68 0c-.44.24-.4 1.12-.08 1.36l1 .2c1.8.36 2.04.6 2.04 4.32v10Zm30.77 9.44c-.36.24-.24 1.12.16 1.32 1.2-.08 2.88-.12 4.2-.12 1.68 0 3.48.04 5.24.12.44-.16.48-1.12.12-1.4l-1.04-.12c-.84-.08-1.28-.28-1.28-.52s.08-.52.36-1.08c1.32-2.52 3.2-5.56 4.76-7.84.6.76 3.64 5.44 4.24 6.52 1 1.68 1.16 2.04 1.16 2.36 0 .24-.48.44-1.48.56l-1.08.12c-.4.2-.24 1.24.12 1.4 2.16-.08 3.96-.12 6.72-.12 3.24 0 4.48.04 6.24.12.4-.28.4-1.12.12-1.4l-1.24-.16c-1.52-.2-2.52-.76-3.92-2.88-1.44-2.16-3.4-5.16-6.4-9.8-.4-.6-.56-1.04-.56-1.24 0-.2.4-.8.8-1.36 1.88-2.56 3.64-5.2 5.56-7.16.72-.72 1.44-.88 2.28-1l1.68-.24c.28-.36.24-1.2-.16-1.4-1.28.08-2.92.12-4.84.12-1.88 0-3.16-.04-4.4-.12-.44.2-.44 1.12-.12 1.4l1.6.28c.52.08.8.28.8.4 0 .2 0 .48-.44 1.2-1.24 2.12-2.56 4.08-4.04 6.32-1.24-1.8-2.68-4-3.76-5.88-.48-.84-.64-1.2-.64-1.56 0-.28.72-.48 1.36-.6l.88-.16c.28-.32.28-1.2-.16-1.4-1.24.08-2.84.12-6.08.12-2.44 0-4.96-.04-6.24-.12-.4.24-.4 1.08-.04 1.4l.68.12c1.8.32 2.64.84 3.56 2.16 1.88 2.68 4.4 6.64 5.72 8.6.52.72.72 1.24.72 1.4 0 .24-.2.72-.56 1.24-1.72 2.56-3.88 5.68-5.04 7.2-1.32 1.8-2.24 2.76-4.64 3.08l-.92.12Zm37.441-9.44c0 4.36.88 7.32 2.96 9.04 2.16 1.76 4.88 2.24 7.92 2.24 3.24 0 6.16-1 7.92-2.88 2.2-2.44 2.56-5.88 2.56-9.64v-4.48c0-3.24.16-6.28.6-7.32.36-.84 1.12-1.08 2.16-1.32l.72-.16c.32-.32.24-1.12 0-1.36-1.52.08-3 .12-4.48.12-1.64 0-3.2-.04-5.36-.12-.24.24-.32 1.04 0 1.36l1.08.2c1.08.2 1.96.44 2.32 1.28.44 1.04.6 4.08.6 7.32v4.84c0 5.48-1.56 9.96-6.68 9.96-6.08 0-6.6-5.16-6.6-9.84v-9.24c0-3.72.24-4.04 2.04-4.36l.96-.16c.32-.24.32-1.12 0-1.36a140.762 140.762 0 0 1-11.68 0c-.44.24-.4 1.12-.08 1.36l1 .2c1.8.36 2.04.6 2.04 4.32v10Zm35.809 4.88c0 3.68-.24 3.96-2.04 4.28l-1.08.2c-.32.2-.32 1.16 0 1.4 2.08-.08 3.84-.12 5.84-.12 1.92 0 3.76.04 5.88.12.28-.24.28-1.2 0-1.4l-1.08-.2c-1.8-.32-2.04-.6-2.04-4.28v-4.92c0-.8.08-.88 1.48-.88 1 0 1.64.32 2.12 1.4.92 2.12 1.84 4.08 3.12 6.2 1.76 2.88 4.08 4.2 7.76 4.2 1.24 0 2.52-.08 3.16-.36.2-.24.2-.84-.16-1.04-.6-.04-1.64-.28-2.68-1.12-1.92-1.64-3.56-4.64-6.2-10-.2-.44-.2-.68.2-.88 1.84-.92 4.24-2.44 4.24-6 0-2.56-1.2-4.56-3.52-5.92-1.52-.92-4.44-1.44-7.84-1.44-3.8 0-6.92.16-9.92.36-.48.2-.48 1.2-.08 1.4l1.08.16c1.68.24 1.76.68 1.76 4.68v14.16Zm5.48-16.88c0-1.92.08-2.04 1.72-2.04 3.12 0 5.24 2.32 5.24 5.92 0 2.36-.76 3.64-1.44 4.32-.76.76-1.6 1.12-3.04 1.12-2.36 0-2.48-.12-2.48-1.52v-7.8Zm35.68 14.08c0-2.28.28-3.28 1.32-5.16l2.52-4.56c1.92-3.48 2.88-4.92 3.48-5.68.44-.56 1.36-.84 2.08-.96l1.04-.2c.32-.28.32-1.24-.16-1.4-1.16.08-2.4.12-3.92.12-1.44 0-2.88-.04-4.48-.12-.4.2-.36 1.2-.04 1.4l.76.16c.96.16 1.6.4 1.6.64 0 .48-.48 1.68-1.92 4.52-1.04 2.04-2.28 4.64-3.44 6.6-.48-1-1.4-2.84-2-4.16l-1.88-4.28c-.84-1.88-1.04-2.48-1.04-2.8 0-.04.24-.2.96-.36l1.36-.32c.36-.32.28-1.24-.08-1.4-1.36.08-3.4.12-5.841.12-2.36 0-3.839-.04-5.64-.12-.48.12-.52 1.08-.16 1.4l1.361.24c1.4.24 1.76.88 2.56 2.52l4.76 9.84c1.04 2.12 1.08 2.76 1.08 4.76v2c0 3.72-.24 4-2.04 4.28l-1.36.2c-.32.24-.32 1.16 0 1.4 2.36-.08 4.36-.12 6.28-.12s3.88.04 6.48.12c.28-.24.28-1.16 0-1.4l-1.6-.2c-1.8-.24-2.04-.56-2.04-4.28v-2.8Z" fill="#14274A"/></svg>